# xmcd CD database file
# 
# Track frame offsets:
# 	150
# 	17507
# 	31715
# 	46245
# 	62085
# 	79692
# 	96947
# 	112135
# 	126650
# 	138977
# 	154927
# 	173267
# 
# Disc length: 2568 seconds
# 
# Submitted via: Nero 6, 3, 1, 18
# 
# Revision: 0
# Processed by: cddbd v1.5.2PL0 Copyright (c) Steve Scherf et al.
#
DISCID=950a060c
DTITLE=TRIO RECORD - De Cara na Porta
DYEAR=1900
DGENRE=
TTITLE0=De Cara na Porta
TTITLE1=So Por Deus
TTITLE2=Eu Desisto
TTITLE3=Deixa Rolar Essa Onda
TTITLE4=Va de Uma Vez
TTITLE5=Escandalosa
TTITLE6=To Na Bronca
TTITLE7=Como Sera O Amanha
TTITLE8=Quem Chorou Fui Eu
TTITLE9=Minha Fantasia
TTITLE10=Anseios
TTITLE11=Louco Varrido
EXTD=
EXTT0=
EXTT1=
EXTT2=
EXTT3=
EXTT4=
EXTT5=
EXTT6=
EXTT7=
EXTT8=
EXTT9=
EXTT10=
EXTT11=
PLAYORDER=
